<svg xmlns="http://www.w3.org/2000/svg" xmlns:xlink="http://www.w3.org/1999/xlink" width="400" zoomAndPan="magnify" viewBox="0 0 300 74.999997" height="100" preserveAspectRatio="xMidYMid meet" version="1.0"><metadata/><defs><g/></defs><path fill="#d81e06" d="M 37.453125 4.113281 C 18.765625 4.113281 5.167969 20.707031 5.453125 36.109375 L 5.457031 36.15625 C 5.214844 36.628906 5.425781 40.625 6.007812 44.40625 C 6.765625 49.359375 7.625 50.441406 8.738281 55.253906 C 10.769531 64.027344 9.285156 66.394531 11.199219 67.726562 C 13.929688 69.628906 20.386719 67.226562 24.335938 63.8125 C 27.214844 65.457031 31.613281 67.960938 37.453125 68.109375 C 51.320312 68.457031 69.449219 55.40625 69.449219 36.109375 C 69.449219 18.4375 55.125 4.113281 37.453125 4.113281 Z M 37.867188 52.253906 C 34.8125 52.269531 31.976562 51.484375 29.367188 49.894531 C 28.382812 50.960938 27.078125 51.796875 25.421875 52.25 C 23.695312 51.285156 20.78125 46.59375 21.679688 35.84375 L 21.695312 35.777344 C 21.960938 27.113281 29.148438 20.144531 37.957031 20.121094 C 46.917969 20.09375 54.164062 27.273438 54.140625 36.140625 C 54.113281 45.019531 46.828125 52.230469 37.867188 52.253906 Z M 37.867188 52.253906 " fill-opacity="1" fill-rule="nonzero"/><g fill="#ffffff" fill-opacity="1"><g transform="translate(84.335618, 55.499994)"><g><path d="M 14.421875 -38.5625 L 27.46875 -7.1875 L 27.515625 -7.1875 L 40.390625 -38.5625 L 50.53125 -38.5625 L 50.53125 2.3125 L 43.28125 2.3125 L 43.28125 -26.984375 L 43.1875 -26.984375 L 31.0625 2.3125 L 23.984375 2.3125 L 11.640625 -26.984375 L 11.53125 -26.984375 L 11.53125 2.3125 L 4.296875 2.3125 L 4.296875 -38.5625 Z M 14.421875 -38.5625 "/></g></g></g><g fill="#ffffff" fill-opacity="1"><g transform="translate(139.152287, 55.499994)"><g><path d="M 2.3125 -4.671875 C 2.3125 -8.390625 4.015625 -11.25 7.421875 -13.25 C 10.835938 -15.25 15.890625 -16.625 22.578125 -17.375 L 22.578125 -18.40625 C 22.578125 -18.96875 22.46875 -19.507812 22.25 -20.03125 C 22.039062 -20.550781 21.691406 -21.015625 21.203125 -21.421875 C 20.722656 -21.835938 20.085938 -22.171875 19.296875 -22.421875 C 18.515625 -22.671875 17.570312 -22.796875 16.46875 -22.796875 C 15.101562 -22.796875 13.796875 -22.535156 12.546875 -22.015625 C 11.296875 -21.492188 10.316406 -20.503906 9.609375 -19.046875 L 3.0625 -19.90625 C 4.09375 -22.507812 5.757812 -24.609375 8.0625 -26.203125 C 10.375 -27.796875 13.300781 -28.59375 16.84375 -28.59375 C 21.132812 -28.59375 24.34375 -27.671875 26.46875 -25.828125 C 28.59375 -23.984375 29.65625 -21.4375 29.65625 -18.1875 L 29.65625 -3.75 C 29.65625 -3.039062 29.878906 -2.566406 30.328125 -2.328125 C 30.773438 -2.097656 31.570312 -2.035156 32.71875 -2.140625 L 32.71875 2.3125 C 31.96875 2.488281 31.21875 2.617188 30.46875 2.703125 C 29.71875 2.796875 28.984375 2.84375 28.265625 2.84375 C 27.835938 2.84375 27.375 2.804688 26.875 2.734375 C 26.375 2.660156 25.898438 2.539062 25.453125 2.375 C 25.003906 2.21875 24.59375 2.015625 24.21875 1.765625 C 23.84375 1.515625 23.566406 1.210938 23.390625 0.859375 C 23.316406 0.753906 23.234375 0.46875 23.140625 0 C 23.054688 -0.46875 22.992188 -0.753906 22.953125 -0.859375 C 21.703125 0.359375 20.140625 1.320312 18.265625 2.03125 C 16.390625 2.75 14.378906 3.109375 12.234375 3.109375 C 11.046875 3.109375 9.863281 2.957031 8.6875 2.65625 C 7.507812 2.351562 6.445312 1.878906 5.5 1.234375 C 4.550781 0.585938 3.78125 -0.210938 3.1875 -1.171875 C 2.601562 -2.140625 2.3125 -3.304688 2.3125 -4.671875 Z M 9.4375 -5.53125 C 9.4375 -4.488281 9.820312 -3.742188 10.59375 -3.296875 C 11.363281 -2.847656 12.445312 -2.625 13.84375 -2.625 C 15.488281 -2.625 17.050781 -2.898438 18.53125 -3.453125 C 20.019531 -4.015625 21.367188 -4.757812 22.578125 -5.6875 L 22.578125 -11.59375 C 20.898438 -11.40625 19.265625 -11.164062 17.671875 -10.875 C 16.078125 -10.59375 14.671875 -10.21875 13.453125 -9.75 C 12.242188 -9.289062 11.269531 -8.710938 10.53125 -8.015625 C 9.800781 -7.316406 9.4375 -6.488281 9.4375 -5.53125 Z M 9.4375 -5.53125 "/></g></g></g><g fill="#ffffff" fill-opacity="1"><g transform="translate(172.943391, 55.499994)"><g><path d="M 8.265625 -27.734375 L 15.390625 -18.078125 L 22.578125 -27.734375 L 30.46875 -27.734375 L 19.359375 -12.765625 L 30.625 2.3125 L 22.75 2.3125 L 15.390625 -7.453125 L 8.15625 2.3125 L 0.265625 2.3125 L 11.484375 -12.765625 L 0.375 -27.734375 Z M 8.265625 -27.734375 "/></g></g></g><g fill="#ffffff" fill-opacity="1"><g transform="translate(203.838111, 55.499994)"><g><path d="M 16.625 -38.5625 L 24.671875 -38.5625 L 40.71875 2.3125 L 33.09375 2.3125 L 29.390625 -7.296875 L 11.59375 -7.296875 L 7.828125 2.3125 L 0.265625 2.3125 Z M 14.109375 -13.734375 L 26.921875 -13.734375 L 20.65625 -30.3125 L 20.59375 -30.3125 Z M 14.109375 -13.734375 "/></g></g></g><g fill="#ffffff" fill-opacity="1"><g transform="translate(244.76289, 55.499994)"><g><path d="M 19.84375 -38.5625 C 22.664062 -38.5625 25.0625 -38.226562 27.03125 -37.5625 C 29 -36.90625 30.585938 -35.992188 31.796875 -34.828125 C 33.015625 -33.671875 33.898438 -32.304688 34.453125 -30.734375 C 35.015625 -29.160156 35.296875 -27.460938 35.296875 -25.640625 C 35.296875 -23.742188 35.015625 -21.988281 34.453125 -20.375 C 33.898438 -18.769531 33.007812 -17.382812 31.78125 -16.21875 C 30.550781 -15.0625 28.953125 -14.148438 26.984375 -13.484375 C 25.015625 -12.828125 22.632812 -12.5 19.84375 -12.5 L 11.53125 -12.5 L 11.53125 2.3125 L 4.296875 2.3125 L 4.296875 -38.5625 Z M 11.53125 -18.9375 L 18.984375 -18.9375 C 22.066406 -18.9375 24.347656 -19.507812 25.828125 -20.65625 C 27.304688 -21.800781 28.046875 -23.460938 28.046875 -25.640625 C 28.046875 -27.785156 27.304688 -29.410156 25.828125 -30.515625 C 24.347656 -31.628906 22.101562 -32.1875 19.09375 -32.1875 L 11.53125 -32.1875 Z M 11.53125 -18.9375 "/></g></g></g><g fill="#ffffff" fill-opacity="1"><g transform="translate(282.040368, 55.499994)"><g><path d="M 11.59375 -38.5625 L 11.59375 2.3125 L 4.296875 2.3125 L 4.296875 -38.5625 Z M 11.59375 -38.5625 "/></g></g></g></svg>